<svg width="30" height="18" viewBox="0 0 30 18" fill="none" xmlns="http://www.w3.org/2000/svg">
<g id="Group">
<path id="rect19" d="M18.9265 1.92529H11.0508V16.0748H18.9265V1.92529Z" fill="#FF5A00"/>
<path id="XMLID_330_" d="M11.5749 9C11.5749 6.12524 12.9264 3.57379 15.0002 1.92524C13.474 0.725243 11.5487 0 9.44873 0C4.47397 0 0.44873 4.02524 0.44873 9C0.44873 13.9748 4.47397 18 9.44873 18C11.5487 18 13.474 17.2748 15.0002 16.0748C12.9235 14.4495 11.5749 11.8748 11.5749 9Z" fill="#EB001B"/>
<path id="path22" d="M29.5515 9C29.5515 13.9748 25.5262 18 20.5515 18C18.4515 18 16.5262 17.2748 15 16.0748C17.1 14.4233 18.4252 11.8748 18.4252 9C18.4252 6.12524 17.0738 3.57379 15 1.92524C16.5233 0.725243 18.4485 0 20.5485 0C25.5262 0 29.5515 4.05146 29.5515 9Z" fill="#F79E1B"/>
</g>
</svg>
