<svg width="40" height="16" viewBox="0 0 40 16" fill="none" xmlns="http://www.w3.org/2000/svg">
<path id="Vector" fill-rule="evenodd" clip-rule="evenodd" d="M9.78568 13.4972C11.0316 13.4972 12.3833 13.9236 13.8799 15.2468C14.0298 15.3792 14.2294 15.2146 14.0983 15.0499C12.628 13.1969 11.268 12.8442 9.91169 12.5461C8.25231 12.181 7.39916 11.2492 6.80449 10.2263C6.68629 10.023 6.63294 10.0589 6.62236 10.3206C6.60902 10.6402 6.63156 11.0638 6.70331 11.4805C6.63616 11.4833 6.56901 11.4828 6.50094 11.4828C4.12777 11.4828 2.20347 9.56218 2.20347 7.19314C2.20347 4.82457 4.12777 2.90441 6.5014 2.90441C8.87458 2.90441 10.7989 4.82457 10.7989 7.19314C10.7989 7.36193 10.7906 7.52888 10.7713 7.69216C10.4576 7.63559 9.83995 7.62915 9.4067 7.6664C9.24389 7.68066 9.26689 7.75654 9.39015 7.77862C10.8108 8.03479 11.7863 8.9137 12.0098 10.5082C12.0144 10.545 12.0632 10.5556 12.082 10.5239C12.6861 9.51804 13.0043 8.36644 13.0023 7.19314C13.0023 3.61038 10.0915 0.705078 6.5014 0.705078C2.91082 0.705078 0 3.60992 0 7.19314C0 10.7768 2.91082 13.6821 6.5014 13.6821C7.45343 13.6821 8.39902 13.4972 9.78568 13.4972ZM10.2695 11.1415C10.5588 11.3853 10.6466 11.6755 10.494 11.8802C10.4089 11.9924 10.2709 12.0545 10.1053 12.0545C9.9438 12.0545 9.78739 11.9979 9.66334 11.8944C9.40027 11.6649 9.323 11.2933 9.49455 11.0822C9.5617 10.9994 9.6707 10.9539 9.80131 10.9539C9.95999 10.9539 10.1265 11.0206 10.2695 11.1415ZM11.6042 10.5216C11.6465 10.8058 11.5568 10.9235 11.4662 10.9235C11.3673 10.9235 11.2436 10.8086 11.0978 10.5809C10.9534 10.3565 10.9005 10.0989 10.9723 9.96875C11.0192 9.88275 11.1181 9.84503 11.2427 9.8924C11.4842 9.98301 11.5784 10.3519 11.6042 10.5216ZM20.6158 9.03604L19.8662 8.13598C19.8486 8.11476 19.8374 8.08896 19.834 8.06162C19.8305 8.03427 19.835 8.00651 19.8467 7.9816C19.8585 7.95669 19.8772 7.93565 19.9005 7.92096C19.9238 7.90627 19.9508 7.89853 19.9784 7.89866H21.5462C21.6208 7.67698 21.6631 7.44012 21.6631 7.1936C21.6631 6.0668 20.8223 5.095 19.6689 5.095C18.5154 5.095 17.6747 6.0668 17.6747 7.1936C17.6747 8.3204 18.5154 9.27887 19.6689 9.27887C20.0184 9.27887 20.338 9.19011 20.6158 9.03604ZM24.0073 10.5561C24.0887 10.6462 24.022 10.7906 23.8992 10.7906H22.1883C22.1539 10.7907 22.1199 10.7831 22.0888 10.7686C22.0576 10.7541 22.03 10.7328 22.008 10.7065L21.7183 10.3583C21.1081 10.754 20.3962 10.9643 19.6689 10.9636C17.5859 10.9636 15.8916 9.27243 15.8916 7.1936C15.8916 5.11477 17.5859 3.42365 19.6689 3.42365C21.7518 3.42365 23.4462 5.11477 23.4462 7.1936C23.4462 7.94327 23.2254 8.64143 22.846 9.2292L24.0073 10.5561ZM39.8142 3.59796H38.4174C38.3683 3.59808 38.3212 3.61765 38.2865 3.65238C38.2518 3.68712 38.2322 3.73419 38.2321 3.78331V10.6053C38.2321 10.7078 38.3149 10.7906 38.4174 10.7906H39.8142C39.9168 10.7906 40 10.7078 40 10.6053V3.78285C40 3.73357 39.9804 3.68631 39.9456 3.65147C39.9107 3.61662 39.8635 3.59796 39.8142 3.59796ZM37.464 3.59796H35.9021C35.8625 3.59781 35.8238 3.61037 35.7917 3.63379C35.7597 3.65721 35.736 3.69026 35.7241 3.72812L34.4879 7.75976L33.1288 3.72352C33.1164 3.6867 33.0927 3.65472 33.0611 3.63211C33.0295 3.60949 32.9915 3.59739 32.9527 3.5975H31.8627C31.8237 3.59736 31.7857 3.60945 31.7541 3.63206C31.7224 3.65467 31.6986 3.68666 31.6861 3.72352L30.3275 7.75976L29.0912 3.72812C29.0794 3.69018 29.0557 3.65702 29.0237 3.63351C28.9917 3.61 28.9529 3.59738 28.9132 3.5975H27.3509C27.3215 3.59755 27.2926 3.60454 27.2665 3.61788C27.2403 3.63123 27.2177 3.65057 27.2005 3.67431C27.1832 3.69783 27.1719 3.72515 27.1674 3.75396C27.1629 3.78277 27.1654 3.81224 27.1747 3.83988L29.4697 10.6655C29.495 10.741 29.5663 10.7915 29.6459 10.7915H30.8858C30.9658 10.7915 31.0367 10.741 31.062 10.666L32.4077 6.67804L33.7529 10.6655C33.7782 10.741 33.8495 10.7915 33.9291 10.7915H35.1695C35.2495 10.7915 35.3203 10.741 35.3456 10.6655L37.6406 3.83988C37.6499 3.81226 37.6524 3.78283 37.648 3.75403C37.6436 3.72523 37.6324 3.6979 37.6153 3.67431C37.598 3.65053 37.5753 3.63118 37.5491 3.61783C37.5229 3.60448 37.4934 3.59798 37.464 3.59796ZM26.5833 3.78331V10.6053C26.5833 10.7078 26.5005 10.7906 26.3975 10.7906H25.0012C24.952 10.7906 24.9048 10.7711 24.8699 10.7364C24.8351 10.7016 24.8155 10.6545 24.8153 10.6053V3.78285C24.8153 3.68029 24.8981 3.59704 25.0012 3.59704H26.3975C26.5 3.59704 26.5833 3.68029 26.5833 3.78331Z" fill="#FF8C00"/>
</svg>
